<svg viewBox="0 0 1112.5999755859375 400" xmlns="http://www.w3.org/2000/svg"><g><g><g><g><g><line x1="49.98400115966797" y1="378.60799980163574" x2="44.98400115966797" y2="378.60799980163574" style="visibility: inherit;" fill="rgb(0, 0, 0)" stroke="rgb(204, 204, 204)" stroke-width="1px"></line><line x1="49.98400115966797" y1="331.2819998264313" x2="44.98400115966797" y2="331.2819998264313" style="visibility: inherit;" fill="rgb(0, 0, 0)" stroke="rgb(204, 204, 204)" stroke-width="1px"></line><line x1="49.98400115966797" y1="283.9559998512268" x2="44.98400115966797" y2="283.9559998512268" style="visibility: inherit;" fill="rgb(0, 0, 0)" stroke="rgb(204, 204, 204)" stroke-width="1px"></line><line x1="49.98400115966797" y1="236.62999987602234" x2="44.98400115966797" y2="236.62999987602234" style="visibility: inherit;" fill="rgb(0, 0, 0)" stroke="rgb(204, 204, 204)" stroke-width="1px"></line><line x1="49.98400115966797" y1="189.30399990081787" x2="44.98400115966797" y2="189.30399990081787" style="visibility: inherit;" fill="rgb(0, 0, 0)" stroke="rgb(204, 204, 204)" stroke-width="1px"></line><line x1="49.98400115966797" y1="141.9779999256134" x2="44.98400115966797" y2="141.9779999256134" style="visibility: inherit;" fill="rgb(0, 0, 0)" stroke="rgb(204, 204, 204)" stroke-width="1px"></line><line x1="49.98400115966797" y1="94.65199995040894" x2="44.98400115966797" y2="94.65199995040894" style="visibility: inherit;" fill="rgb(0, 0, 0)" stroke="rgb(204, 204, 204)" stroke-width="1px"></line><line x1="49.98400115966797" y1="47.32599997520447" x2="44.98400115966797" y2="47.32599997520447" style="visibility: inherit;" fill="rgb(0, 0, 0)" stroke="rgb(204, 204, 204)" stroke-width="1px"></line><line x1="49.98400115966797" y1="0" x2="44.98400115966797" y2="0" style="visibility: inherit;" fill="rgb(0, 0, 0)" stroke="rgb(204, 204, 204)" stroke-width="1px"></line></g><g transform="translate(39.98400115966797, 0)"><text style="text-anchor: end; visibility: hidden; font-family: &quot;Helvetica Neue&quot;, sans-serif; font-size: 12px; font-weight: 200;" x="0" y="378.60799980163574" dx="0em" dy="0.3em" fill="rgb(50, 49, 63)" stroke="none" stroke-width="1px">-100</text><text style="text-anchor: end; visibility: inherit; font-family: &quot;Helvetica Neue&quot;, sans-serif; font-size: 12px; font-weight: 200;" x="0" y="331.2819998264313" dx="0em" dy="0.3em" fill="rgb(50, 49, 63)" stroke="none" stroke-width="1px">0</text><text style="text-anchor: end; visibility: inherit; font-family: &quot;Helvetica Neue&quot;, sans-serif; font-size: 12px; font-weight: 200;" x="0" y="283.9559998512268" dx="0em" dy="0.3em" fill="rgb(50, 49, 63)" stroke="none" stroke-width="1px">100</text><text style="text-anchor: end; visibility: inherit; font-family: &quot;Helvetica Neue&quot;, sans-serif; font-size: 12px; font-weight: 200;" x="0" y="236.62999987602234" dx="0em" dy="0.3em" fill="rgb(50, 49, 63)" stroke="none" stroke-width="1px">200</text><text style="text-anchor: end; visibility: inherit; font-family: &quot;Helvetica Neue&quot;, sans-serif; font-size: 12px; font-weight: 200;" x="0" y="189.30399990081787" dx="0em" dy="0.3em" fill="rgb(50, 49, 63)" stroke="none" stroke-width="1px">300</text><text style="text-anchor: end; visibility: inherit; font-family: &quot;Helvetica Neue&quot;, sans-serif; font-size: 12px; font-weight: 200;" x="0" y="141.9779999256134" dx="0em" dy="0.3em" fill="rgb(50, 49, 63)" stroke="none" stroke-width="1px">400</text><text style="text-anchor: end; visibility: inherit; font-family: &quot;Helvetica Neue&quot;, sans-serif; font-size: 12px; font-weight: 200;" x="0" y="94.65199995040894" dx="0em" dy="0.3em" fill="rgb(50, 49, 63)" stroke="none" stroke-width="1px">500</text><text style="text-anchor: end; visibility: inherit; font-family: &quot;Helvetica Neue&quot;, sans-serif; font-size: 12px; font-weight: 200;" x="0" y="47.32599997520447" dx="0em" dy="0.3em" fill="rgb(50, 49, 63)" stroke="none" stroke-width="1px">600</text><text style="text-anchor: end; visibility: hidden; font-family: &quot;Helvetica Neue&quot;, sans-serif; font-size: 12px; font-weight: 200;" x="0" y="0" dx="0em" dy="0.3em" fill="rgb(50, 49, 63)" stroke="none" stroke-width="1px">700</text></g><line x1="49.98400115966797" y1="0" x2="49.98400115966797" y2="378.60799980163574" fill="rgb(0, 0, 0)" stroke="rgb(204, 204, 204)" stroke-width="1px"></line></g></g><g transform="translate(49, 0)" clip-path="url(#clip_0)"><clipPath id="clip_0"><rect width="1062" height="378"></rect></clipPath><g><g><g><line x1="0" y1="0" x2="0" y2="378.60799980163574" fill="rgb(0, 0, 0)" stroke="rgb(60, 60, 60)" stroke-width="1px" opacity="0.25"></line><line x1="81.73969221848708" y1="0" x2="81.73969221848708" y2="378.60799980163574" fill="rgb(0, 0, 0)" stroke="rgb(60, 60, 60)" stroke-width="1px" opacity="0.25"></line><line x1="163.47938443697416" y1="0" x2="163.47938443697416" y2="378.60799980163574" fill="rgb(0, 0, 0)" stroke="rgb(60, 60, 60)" stroke-width="1px" opacity="0.25"></line><line x1="245.21907665546124" y1="0" x2="245.21907665546124" y2="378.60799980163574" fill="rgb(0, 0, 0)" stroke="rgb(60, 60, 60)" stroke-width="1px" opacity="0.25"></line><line x1="326.9587688739483" y1="0" x2="326.9587688739483" y2="378.60799980163574" fill="rgb(0, 0, 0)" stroke="rgb(60, 60, 60)" stroke-width="1px" opacity="0.25"></line><line x1="408.69846109243537" y1="0" x2="408.69846109243537" y2="378.60799980163574" fill="rgb(0, 0, 0)" stroke="rgb(60, 60, 60)" stroke-width="1px" opacity="0.25"></line><line x1="490.4381533109225" y1="0" x2="490.4381533109225" y2="378.60799980163574" fill="rgb(0, 0, 0)" stroke="rgb(60, 60, 60)" stroke-width="1px" opacity="0.25"></line><line x1="572.1778455294095" y1="0" x2="572.1778455294095" y2="378.60799980163574" fill="rgb(0, 0, 0)" stroke="rgb(60, 60, 60)" stroke-width="1px" opacity="0.25"></line><line x1="653.9175377478966" y1="0" x2="653.9175377478966" y2="378.60799980163574" fill="rgb(0, 0, 0)" stroke="rgb(60, 60, 60)" stroke-width="1px" opacity="0.25"></line><line x1="735.6572299663836" y1="0" x2="735.6572299663836" y2="378.60799980163574" fill="rgb(0, 0, 0)" stroke="rgb(60, 60, 60)" stroke-width="1px" opacity="0.25"></line><line x1="817.3969221848707" y1="0" x2="817.3969221848707" y2="378.60799980163574" fill="rgb(0, 0, 0)" stroke="rgb(60, 60, 60)" stroke-width="1px" opacity="0.25"></line><line x1="899.1366144033578" y1="0" x2="899.1366144033578" y2="378.60799980163574" fill="rgb(0, 0, 0)" stroke="rgb(60, 60, 60)" stroke-width="1px" opacity="0.25"></line><line x1="980.876306621845" y1="0" x2="980.876306621845" y2="378.60799980163574" fill="rgb(0, 0, 0)" stroke="rgb(60, 60, 60)" stroke-width="1px" opacity="0.25"></line><line x1="1062.615998840332" y1="0" x2="1062.615998840332" y2="378.60799980163574" fill="rgb(0, 0, 0)" stroke="rgb(60, 60, 60)" stroke-width="1px" opacity="0.25"></line></g><g><line x1="0" y1="378.60799980163574" x2="1062.615998840332" y2="378.60799980163574" fill="rgb(0, 0, 0)" stroke="rgb(60, 60, 60)" stroke-width="1px" opacity="0.25"></line><line x1="0" y1="331.2819998264313" x2="1062.615998840332" y2="331.2819998264313" fill="rgb(0, 0, 0)" stroke="rgb(60, 60, 60)" stroke-width="1px" opacity="0.25"></line><line x1="0" y1="283.9559998512268" x2="1062.615998840332" y2="283.9559998512268" fill="rgb(0, 0, 0)" stroke="rgb(60, 60, 60)" stroke-width="1px" opacity="0.25"></line><line x1="0" y1="236.62999987602234" x2="1062.615998840332" y2="236.62999987602234" fill="rgb(0, 0, 0)" stroke="rgb(60, 60, 60)" stroke-width="1px" opacity="0.25"></line><line x1="0" y1="189.30399990081787" x2="1062.615998840332" y2="189.30399990081787" fill="rgb(0, 0, 0)" stroke="rgb(60, 60, 60)" stroke-width="1px" opacity="0.25"></line><line x1="0" y1="141.9779999256134" x2="1062.615998840332" y2="141.9779999256134" fill="rgb(0, 0, 0)" stroke="rgb(60, 60, 60)" stroke-width="1px" opacity="0.25"></line><line x1="0" y1="94.65199995040894" x2="1062.615998840332" y2="94.65199995040894" fill="rgb(0, 0, 0)" stroke="rgb(60, 60, 60)" stroke-width="1px" opacity="0.25"></line><line x1="0" y1="47.32599997520447" x2="1062.615998840332" y2="47.32599997520447" fill="rgb(0, 0, 0)" stroke="rgb(60, 60, 60)" stroke-width="1px" opacity="0.25"></line><line x1="0" y1="0" x2="1062.615998840332" y2="0" fill="rgb(0, 0, 0)" stroke="rgb(60, 60, 60)" stroke-width="1px" opacity="0.25"></line></g></g></g><g><g><line x1="0" y1="331.2819998264313" x2="1062.615998840332" y2="331.2819998264313" fill="rgb(0, 0, 0)" stroke="rgb(153, 153, 153)" stroke-width="1.5px"></line></g></g><g><g><line x1="81.73969221848708" y1="0" x2="81.73969221848708" y2="378.60799980163574" fill="rgb(0, 0, 0)" stroke="rgb(153, 153, 153)" stroke-width="1.5px"></line></g></g><g><g><g><g><g><path style="fill: none;" stroke="rgb(0, 119, 187)" stroke-width="2px" d="M83.78318452394925,250.484105770253L84.19188298504169,254.5325816323897L85.82667682941143,284.63475128397664L86.23537529050387,290.1442267510608L87.05277221268872,298.7553547830482L87.46147067378116,301.6302309135915L87.8701691348736,303.77856455489143L89.09626451815092,309.1509097307571L89.50496297924334,310.5160600318608L89.91366144033579,311.6322570574905L91.54845528470551,316.3064984195969L95.22674143453743,321.3862470404783L95.63543989562987,321.8116275218991L96.45283681781474,322.47941510280225L98.0876306621845,323.5062485215682L98.90502758436935,323.9877377289079L99.72242450655422,324.3503883866578L100.13112296764666,324.47807673070713L100.94851988983153,324.14706156066876L101.76591681201641,324.40967045533705L102.17461527310884,324.9897124686021L103.40071065638614,325.10995241618235L103.80940911747858,325.22966655743124L104.21810757857102,325.5833455600269L104.62680603966345,325.4093849048102L105.03550450075589,325.8228979598991L106.67029834512562,326.05343808438533L107.4876952673105,326.21348676161244L108.30509218949537,326.3055249850597L108.71379065058781,326.52540861745183L109.12248911168024,326.44112253953887L109.53118757277268,326.5915943201607L110.75728295604998,326.6935447827919L111.16598141714242,326.73446515277703L111.57467987823485,326.8195008996311L111.98337833932729,326.7593269912001L114.02687064478947,327.02737403220885L116.07036295025163,327.2126225984532L116.47906141134408,327.3279109398005L116.88775987243652,327.34431609733895L117.29645833352895,327.32284559691914L117.70515679462139,327.2911505328679L118.11385525571383,327.37393501621915L120.157347561176,327.47551041871185L123.42693524991547,327.6692664411304L124.65303063319278,327.73047481145966L125.06172909428523,327.7495823427397L127.92261832193226,327.8927219458885L129.1487137052096,327.96180048609165L129.96611062739444,327.99486964231096L132.41830139394906,328.07747968433426L132.8269998550415,328.06649371702815L133.23569831613392,328.0971854613587L134.46179369941123,328.12027670901966L134.87049216050366,328.12565573035624L137.7313813881507,328.24042548674674L138.5487783103356,328.2689905362847L139.36617523252045,328.30317765154507L139.7748736936129,328.29867670421504L140.18357215470533,328.3379153966116L140.5922706157978,328.36165566530644L143.04446138235238,328.4363962144597L144.2705567656297,328.446727970369L145.08795368781455,328.4930156269571L145.9053506099994,328.51867520159544L146.31404907109186,328.514389090157L146.7227475321843,328.51965708286053L147.94884291546163,328.5687434734064L149.1749382987389,328.65955631986685L149.9923352209238,328.6581070802703L150.4010336820162,328.68131973729015L151.62712906529353,328.7155174589443L153.6706213707557,328.7962582933098L154.07931983184812,328.81661534804766L154.48801829294058,328.8348493186802L155.30541521512544,328.8475485570883L156.53151059840275,328.86276399317654L157.3489075205876,328.87533776020257L157.75760598168003,328.8884531303167L158.5750029038649,328.88930570384457L159.3923998260498,328.89117242915484L159.80109828714222,328.88030064983315L162.66198751478927,328.90358867994945L165.93157520352875,328.9183645148645L166.3402736646212,328.9091667404209L166.7489721257136,328.91159312225557L168.38376597008337,329.0444470057576L169.60986135336066,329.05301336126763L170.835956736638,329.04617833029585L172.47075058100774,329.1178195557775L172.87944904210016,329.12159159561816L173.69684596428502,329.1088512856425L174.10554442537745,329.1235314373453L174.5142428864699,329.1293496085192L175.33163980865478,329.14080519083626L176.55773519193207,329.1395615347452L176.96643365302452,329.1473746106269L177.37513211411695,329.15437392786873L178.60122749739423,329.1658579443479L182.68821210831862,329.2056754750449L183.50560903050348,329.2047926620113L185.95779979705807,329.24619934643596L187.1838951803354,329.2616005072498L187.5925936414278,329.2699163713316L188.00129210252027,329.27698000394014L188.4099905636127,329.27403955050767L189.22738748579758,329.2677815524927L190.86218133016732,329.2565317793491L191.6795782523522,329.22143815592005L192.49697517453706,329.15693119711636L193.3143720967219,329.10226313541176L195.3578644021841,329.3270852852955L196.175261324369,329.25573201212234L197.8100551687387,329.33712073918196L199.8535474742009,329.35181601063766L200.67094439638578,329.34258754535244L201.0796428574782,329.35795011694626L203.12313516294037,329.38740497522434L203.53183362403283,329.38725783971876L203.94053208512523,329.38665620895506L204.7579290073101,329.3999907026519L205.16662746840257,329.4197597795373L205.575325929495,329.4418769314775L207.21011977386473,329.4618232705402L207.61881823495716,329.47850080929834L208.43621515714204,329.4925321656352L209.66231054041933,329.4935722692323L211.29710438478907,329.51094069042966L211.70580284588152,329.5134524875847L212.11450130697395,329.52306075203546L212.5231997680664,329.5246736008982L213.34059669025123,329.5247505536703L214.56669207352857,329.5331670656593L214.975390534621,329.5348182780741L215.38408899571346,329.535830624513L216.61018437899074,329.54040209307846L217.0188828400832,329.5409229347148L217.83627976226805,329.54421238363716L220.28847052882264,329.5534900445362L221.10586745100753,329.55704138111844L222.33196283428484,329.55722891118774L222.74066129537727,329.5588234809462L223.55805821756215,329.56046848749236L223.96675667865458,329.56136179408577L226.01024898411674,329.5661857850911L226.4189474452092,329.5682385736289L227.23634436739405,329.57874759171557L228.05374128957894,329.57288462545296L228.46243975067136,329.5858081778067L228.87113821176382,329.58591243640114L230.0972335950411,329.5921769787868L231.73202743941087,329.6068210236171L232.95812282268815,329.6200464068585L233.3668212837806,329.6162383729793L234.18421820596544,329.6238096456489L235.8190120503352,329.62895092579663L236.22771051142766,329.63024513150924L236.63640897252006,329.63059604517673L237.45380589470494,329.63767186385473L237.86250435579737,329.64065711237595L239.4972982001671,329.64405623592364L239.90599666125956,329.6428474455314L240.314695122352,329.63586336087644L241.13209204453688,329.638299672101L241.54079050562927,329.63500898200493L241.94948896672173,329.63479459744923L242.35818742781416,329.6359395238107L246.03647357764606,329.68906040602695L246.44517203873852,329.6900044879099L248.48866434420069,329.7064978816181L251.34955357184774,329.7269868392747L251.7582520329402,329.7276116010036L253.39304587730993,329.7355392033716L253.80174433840236,329.73855062937537L254.21044279949479,329.7412649635186L255.02783972167967,329.7553423561179L255.84523664386452,329.76005971901526L257.48003048823426,329.77037928885505L261.1583166380662,329.78053840878L261.56701509915865,329.77948769878907L261.97571356025105,329.7800432932903L262.3844120213435,329.77983161675L263.6105074046208,329.77165307161783L266.0626981711754,329.7117448872019L268.92358739882246,165.47808570431664L269.3322858599149,206.83574963345373L269.7409843210073,225.78062125804942L270.1496827820998,250.23944560192416L270.96707970428463,262.8393864998637L271.3757781653771,265.63210866331747L272.6018735486544,271.5377415145324L273.0105720097468,274.20235649421545L273.41927047083925,276.09439994354153L275.05406431520896,283.97151136366983L275.4627627763014,285.88728424962903L277.0975566206712,291.09651662879673L279.9584458483182,296.19325804656705L281.1845412315956,297.4503476995339L281.593239692688,298.23458174972114L282.41063661487283,299.34732695833617L283.22803353705774,299.45504459118376L284.454128920335,300.2818739189061L288.94981199235184,59.61204216603306L290.1759073756291,84.92454851873788L290.58460583672155,93.83170957730357L290.993304297814,100.65836375463505L291.8107012199988,107.26639804011336L292.6280981421837,113.29503256332197L293.0367966032762,112.67941038652049L293.85419352546097,118.3792990566298L295.89768583092325,110.31172388385471L296.30638429201565,119.57930374411148L298.7585750585702,121.07076310673335L299.5759719807551,126.48555191126945L299.9846704418476,127.88941600111008L300.39336890294,129.1544708301592L300.8020673640324,130.51380792478392L301.2107658251249,133.79832013497713L301.6194642862173,132.39691131246917L302.02816274730975,131.11544952053805L302.43686120840215,131.12872240688358L302.8455596694946,131.49149537666426L303.25425813058706,132.62296922006556L304.0716550527719,135.33536081349308L305.2977504360492,134.71693674338252L305.7064488971416,135.80945849268807L306.1151473582341,134.28639839521946L306.932544280419,134.99779044074518L308.5673381247887,139.21929043609197L309.38473504697356,140.88043765690134L310.2021319691584,142.34098953662925L311.8369258135282,144.5747773131689L312.24562427462064,145.05618302336586L312.65432273571304,145.55858849063196L314.2891165800828,147.17330227335532L315.9239104244526,148.9319524927708L316.33260888554497,149.29264570669312L317.5587042688223,150.03383314343859L318.37610119100714,150.7043233237514L318.7847996520996,150.9822740285618L319.193498113192,151.27185114633L319.60219657428445,151.5450213012162L320.0108950353769,151.74470674910958L320.4195934964693,151.777838415352L321.2369904186542,149.25688546012987L321.6456888797466,150.39133450982843L323.68918118520884,151.6880045164733L324.09787964630124,152.24673670490125L325.32397502957855,152.77297270804354L325.732673490671,153.13219276156627L326.9587688739483,153.897311833431L327.77616579613317,154.34625024384036L329.4109596405029,154.95163251158954L330.22835656268774,155.26649888288455L331.04575348487265,155.6739432753713L331.8631504070575,156.33807864611708L333.0892457903348,156.85648667929274L334.7240396347046,157.41547883720295L335.132738095797,157.54222840256625L335.9501350179819,157.75352582066841L337.17623040125915,158.02470287619042L338.8110242456289,158.45801423216454L340.8545165510911,159.1585886586774L343.71540577873816,159.7733153850399L344.12410423983056,159.88947841537453L344.94150116201547,160.1143664603007L345.35019962310787,160.2269621316284L345.7588980842003,160.40449240253145L346.1675965452927,160.53927213634756L346.5762950063852,160.62555311896836L346.98499346747764,160.73986747742902L348.2110888507549,161.00191671557297L349.84588269512466,161.4030929549868L350.25458115621706,161.51561641256944L351.8893750005868,162.0736120207976L353.11547038386414,162.150418560064L353.93286730604905,161.80413920965947L354.34156576714145,162.2118435716285L354.7502642282339,162.3240781742308L355.9763596115112,162.61515733789668L356.38505807260367,162.70112058003912L356.79375653369607,162.78273655472782L357.20245499478847,162.87086620922264L357.611153455881,162.91350120431753L358.42855037806584,163.02976533389528L358.83724883915824,163.1909608556614L359.24594730025063,163.3130742985906L360.06334422243555,163.76360141139162L360.472042683528,163.6886868722463L360.8807411446204,163.61924613497803L361.28943960571286,163.66318097748427L361.6981380668053,163.99932151807968L362.1068365278977,163.88091986164756L362.92423345008257,164.21593386781967L363.3329319111751,163.8490158290715L366.19382113882205,164.59846451825405L367.4199165220994,164.83210486908376L367.8286149831918,164.8780761392013L368.2373134442842,164.95408832727185L369.0547103664691,165.07233111346477L370.2808057497465,165.18801753308185L371.0982026719313,165.32681235112437L371.91559959411614,165.52069181391346L373.5503934384859,165.77640068523942L375.1851872828556,166.13996800621595L375.5938857439481,166.20045423909437L376.411282666133,166.372987318838L376.8199811272254,166.44475333869786L377.22867958831785,166.48962695989013L377.6373780494103,166.5480045514123L378.0460765105027,166.5837792407246L380.08956881596487,166.9950942899476L382.5417595825195,167.355816389368L383.3591565047044,167.53133911815786L383.7678549657968,167.62251619269506L384.17655342688926,167.62888544501106L384.58525188798166,167.72487195497052L385.40264881016657,167.80911650998007L386.6287441934438,168.0605936558444L387.0374426545363,168.1258893241452L388.2635380378136,168.34521691070017L388.67223649890605,168.3845445162704L389.0809349599985,168.489716614604L389.8983318821833,165.53161053216945L390.7157288043682,165.9751329116978L391.94182418764547,159.67481583675163L393.16791957092283,157.79237681552115L394.39401495420014,160.84930018672225L394.80271341529254,160.99824825732293L395.211411876385,161.09235720991035L396.0288087985699,162.25423303999008L396.4375072596623,162.51995073638403L396.8462057207547,162.92973485421135L397.6636026429396,163.8910731142057L398.0723011040321,164.4037618187711L398.4809995651245,164.86754737516873L400.52449187058664,166.2467576924393L402.1592857149564,167.30619110374943L402.5679841760488,167.39137443744505L403.3853810982337,167.6739034936935L404.2027780204186,167.89925370658813L405.0201749426035,168.16853876198905L405.4288734036959,168.26677834079499L405.8375718647883,168.34979526213823L406.24627032588074,168.473381865467L406.65496878697314,168.59127802568355L407.06366724806566,168.6814152222916L407.88106417025045,168.8350427435734L408.69846109243537,169.08023729361588L409.5158580146202,169.3154230185903L410.74195339789753,169.44290916415338L411.5593503200824,169.55544706448507L411.96804878117484,169.56837332485424L412.3767472422673,169.5828160738701L414.01154108663707,169.74427156511854L414.82893800882186,169.83140466993132L415.2376364699143,169.86732378673378L416.05503339209923,169.94011524177375L417.2811287753765,170.08982877807227L418.91592261974625,170.29048189014975L420.14201800302357,170.4430406480044L421.3681133863009,170.52126257667436L421.77681184739333,170.5784703055262L422.59420876957813,170.67071614349055L423.41160569176304,170.79095202904767L424.2290026139479,170.83913303976465L426.27249491941006,171.04559213694648L427.089891841595,171.11410853827778L427.4985903026874,171.15675797612164L427.90728876377983,171.20930069704139L428.31598722487223,171.24995703552105L429.54208260814954,171.35449365289793L431.99427337470416,171.67099205483174L432.8116702968891,171.8038220175307L433.2203687579815,171.8347728286717L433.6290672190739,171.87020089200763L434.0377656801664,171.9166632155917L434.4464641412588,171.96130575279972L436.08125798562855,172.13658295485635L436.8986549078134,172.18651153820423L437.3073533689058,172.18974671398377L438.9421472132756,172.28607984991964L439.350845674368,172.2967385986933L439.7595441354605,172.30456656865994L440.1682425965529,172.30907270635288L441.3943379798302,172.36941451174118L441.80303644092265,172.38678913880727L442.21173490201505,172.4006397351135L443.0291318241999,172.42494688170723L444.2552272074772,172.52708600274747L445.07262412966213,172.60136506093608L445.48132259075453,172.64746631579476L446.2987195129394,172.6483473234847L446.7074179740319,172.65334451464417L447.93351335730915,172.7355093137955L449.15960874058646,172.82207915139662L449.5683072016789,172.82775515175985L452.42919642932594,172.58970976248025L452.8378948904184,172.6928454332026L453.2465933515108,172.96938074860947L453.65529181260325,172.8400170456743L454.0639902736957,172.79658769938362L454.4726887347881,173.0855148934461L454.88138719588056,172.97514340546678L455.6987841180654,173.2141275734324L456.1074825791579,173.08301629786632L456.51618104025033,173.27275069168786L457.74227642352764,173.50750313419178L458.15097488462004,173.44872114569722L458.5596733457125,173.56879816101514L458.9683718068049,173.64739560115953L459.7857687289898,173.6418062572904L462.2379594955444,173.87072382919195L462.64665795663683,173.9011835868664L463.87275333991414,174.04601547399756L466.7336425675612,174.25134803675616L467.9597379508385,174.24910941065872L470.82062717848555,174.33320953817815L471.22932563957795,174.34542810384556L471.6380241006704,174.36280273091165L472.4554210228553,174.44503974380802L472.8641194839477,174.4464840187096L473.2728179450401,174.46199553115264L474.4989133283175,174.54215278819072L474.9076117894099,174.6318422595793L475.72500871159474,174.67327850650582L476.54240563377965,174.70749337892443L476.95110409487205,174.7721680090175L478.5858979392418,174.8505199224286L478.9945964003342,174.9561108604836L479.81199332251913,175.03070765915055L480.629390244704,175.100263938411L481.0380887057964,175.1950661429512L481.4467871668889,175.25725662021352L481.8554856279813,175.09278259442078L483.08158101125855,175.39953214076888L483.49027947235106,175.0726638450417L483.89897793344346,175.15425093423232L485.1250733167208,175.2343215347763L485.53377177781323,175.39179082729635L488.8033594665527,175.8430400775482L490.02945484982996,175.96667000912407L490.4381533109225,176.0844650700975L491.25555023310733,176.39638512059327L492.0729471552921,176.4391789859273L492.48164561638464,176.50093618071912L493.7077409996619,176.73613634844259L494.11643946075435,176.769296900183L494.9338363829392,176.87273586863472L495.34253484403166,176.89998933602766L495.75123330512406,176.9052464966694L496.1599317662166,176.91451874153762L497.3860271494938,176.98796012028333L500.6556148382333,177.07084705688538L501.4730117604182,177.10948141050284L502.2904086826031,177.11670278501077L503.107805604788,177.1402733514047L503.5165040658804,177.15971329158003L503.9252025269728,177.1789799187672L504.74259944915764,177.22009842521538L505.55999637134255,177.29810371265012L505.96869483243495,177.3518596244872L506.3773932935274,177.37621009932792L507.6034886768047,177.43281123272112L508.42088559898957,177.49500170998346L511.28177482663665,177.69799454740155L511.69047328772905,177.7066746395601L512.9165686710064,177.481829922881L513.7339655931912,177.6214335348684L516.1861563597458,177.99125456616878L516.5948548208383,177.81695947104527L517.4122517430231,164.9646026485554L518.2296486652081,166.88059217574977L519.8644425095778,100.1285892779839L520.6818394317627,106.50653612889039L521.4992363539476,114.21935405758865L522.3166332761324,106.14761937309697L523.1340301983173,114.11487521120785L524.3601255815945,120.82509194597338L524.768824042687,122.55891507983063L525.1775225037794,124.61183631044446L525.5862209648719,126.1609222416397L528.0384117314264,133.38670178802482L528.447110192519,134.45231669591374L530.8993009590736,138.27291486407807L531.7166978812585,139.30726122034764L532.5340948034433,140.352324096387L532.9427932645357,140.7049582563585L533.3514917256282,140.9928744579899L537.0297778754601,143.48339654103563L537.8471747976449,143.97095486231336L539.0732701809222,144.6341225688751L540.2993655641995,145.24012587483202L540.708064025292,145.43683611642814L541.5254609474769,145.74130370843176L541.9341594085693,145.8049673460937L542.3428578696618,145.85735119677423L543.568953252939,146.16334972017353L543.9776517140315,146.2941865835083L544.7950486362163,146.40844317097282L545.2037470973088,146.43956729510205L545.6124455584012,146.4705614344901L546.8385409416785,146.68146889836885L547.247239402771,146.70904010624014L548.0646363249558,146.87374521601714L551.3342240136953,147.37583294280483L551.7429224747877,147.4065382272126L552.1516209358801,147.4853667513412L552.5603193969727,147.56311206929365L553.78641478025,147.7049254218805L554.1951132413424,147.78479382393823L554.6038117024348,147.82578234564528L555.8299070857121,147.9053474499737L556.2386055468045,147.970238721302L556.647304007897,148.04590428339617L562.7777809242834,148.857529007092L564.0038763075607,148.88388702404598L564.8212732297457,148.9897379315833L565.2299716908382,149.03513149174017L566.047368613023,149.18516276851705L566.4560670741155,149.2483642382105L567.6821624573927,149.40235282821772L568.90825784067,149.48028590190734L569.3169563017625,149.5231808664845L569.7256547628549,149.59940969579026L570.1343532239473,149.6808234719927L570.9517501461321,149.82217465661103L571.7691470683171,150.0768003217608L572.5865439905019,150.15164264716105L573.4039409126868,150.26589923462564L573.8126393737792,150.26875889893074L574.6300362959641,150.4356015355621L575.447433218149,150.5613112229962L576.2648301403339,150.71603639320324L576.6735286014263,150.7316490048894L577.0822270625188,150.70043822426612L577.4909255236112,150.66438912272247L577.8996239847037,150.68954839150814L581.986608595628,151.18025523207137L582.3953070567204,151.16558139907124L583.6214024399976,151.30082330085582L585.2561962843674,151.39057054324047L585.6648947454598,151.3954955206549L586.0735932065523,151.43641182861683L586.8909901287371,151.45889918883455L588.1170855120145,151.50391723751704L589.3431808952918,151.5532247826572L590.1605778174767,151.58485440300194L590.9779747396615,151.68110088244373L591.386673200754,151.7231148393309L592.2040701229388,151.742309252773L593.8388639673086,152.15398537072133L594.247562428401,152.17741150962507L594.6562608894934,152.07678887723154L595.4736578116783,152.20661474813517L595.8823562727708,152.28427340959354L596.2910547338631,152.3359351228233L597.1084516560481,152.50994136296652L597.5171501171404,152.51993574528547L597.925848578233,152.59773883423395L598.3345470393253,152.58160628358326L598.7432455004179,152.64652644040956L599.1519439615103,152.75668128715364L601.1954362669725,152.97433351482277L601.6041347280648,153.01373333413807L602.4215316502498,152.96110395672423L604.0563254946195,153.15610995393655L604.4650239557119,153.02606744179764L605.2824208778968,153.16942616852918L606.9172147222665,153.36628083761548L607.7346116444514,153.41623830646137L608.5520085666362,153.50662102980272L609.3694054888211,153.57931138559957L609.7781039499137,153.5430889710678L610.1868024110059,153.5828209736104L610.5955008720985,153.6486654663738L611.4128977942833,153.79026217772537L612.6389931775607,153.84007521908114L613.047691638653,153.9389647215928L613.865088560838,154.14314186443016L614.2737870219303,154.1323531309153L614.6824854830228,154.12368748150578L615.4998824052076,154.221291579355L617.1346762495774,154.53377489706241L617.9520731717623,154.51690576621183L618.3607716328546,154.5895816792597L619.1781685550396,154.72134287853152L619.586867016132,154.76890285104076L620.8129623994093,154.92913070862284L621.2216608605017,154.94276466369382L623.265153165964,155.0914383220632L623.6738516270564,155.07358708427955L624.0825500881488,155.10058058219022L625.3086454714261,155.20761579514686L626.126042393611,155.43776100071477L626.5347408547035,155.41998197667618L626.9434393157958,155.39804344092113L627.3521377768883,155.44277263462322L627.7608362379808,155.53341532744685L628.1695346990731,155.58744565151522L629.3956300823504,155.74100095905197L630.6217254656278,155.88404194530517L631.4391223878126,155.89693932017633L632.6652177710899,155.9911204865088L633.0739162321823,155.9714783478472L633.4826146932749,155.96167172126547L633.8913131543673,155.97462686713266L635.526106998737,156.18781628535595L637.1609008431068,156.30523583485495L637.9782977652916,156.3745899156292L638.386996226384,156.40933916976138L640.0217900707538,156.52629655129186L641.6565839151235,156.60362302952285L642.8826792984008,156.70605100554343L644.5174731427707,156.76775042933923L644.9261716038629,156.78719036951458L645.3348700649555,156.81587366906007L646.5609654482328,156.8542047249482L647.3783623704177,156.8745112300645L647.7870608315101,156.90198133869274L648.604457753695,156.91248121722725L649.0131562147873,156.94877584550414L649.4218546758798,157.00856882642984L650.2392515980646,157.02192836926952L650.6479500591571,157.02158174329315L651.8740454424344,157.0884516712366L653.9175377478966,157.2258166571266L658.8219192810058,157.5168958207924L659.2306177420983,157.5704784196413L659.6393162031907,157.80215455660488L660.0480146642831,157.8117300992024L661.6828085086528,157.72823656714166L662.9089038919301,158.03918895345333L663.3176023530226,158.10442685075805L664.1349992752075,158.03358516683517L664.5436977362999,158.2113320789735L664.9523961973923,158.3535642712818L665.3610946584848,158.28058506050462L666.9958885028544,22.073835427887957L667.4045869639469,23.302826712644446L667.8132854250395,29.243735978330676L668.6306823472243,43.69468847564218L669.0393808083167,44.34877169307293L669.4480792694092,46.66741062008077L670.265476191594,51.40700090812493L671.0828731137788,54.79942933896467L673.5350638803335,55.28747871370899L674.3524608025183,58.34971701654797L676.3959531079805,62.13975432779466L676.8046515690729,63.14707830065555L680.4829377189049,66.97622657623725L680.8916361799972,67.13850530417955L682.5264300243671,68.22696864101164L685.3873192520141,69.48585641623094L687.0221130963838,70.22440082990653L687.4308115574763,70.4302388888807L688.6569069407536,70.48656561004259L689.065605401846,70.72466877031826L690.2917007851233,71.00491587222217L691.1090977073081,71.24475216237971L691.5177961684007,71.26913152271851L691.9264946294932,71.38554007978644L694.7873838571401,72.0096979212563L695.1960823182326,72.07367929939659L695.604780779325,72.18240431398806L696.0134792404175,72.29066716061106L696.8308761626023,72.43287046742131L697.2395746236948,72.49223016587655L697.6482730847871,72.48269795152606L698.0569715458796,72.52316653426851L698.465670006972,72.62097283060399L698.8743684680645,72.71343530980363L699.2830669291569,72.6960173544905L701.3265592346191,72.832992386157L702.1439561568039,72.8698791671435L704.1874484622662,73.17843405711858L704.5961469233586,73.32179278385013L705.004845384451,73.5593760051612L705.8222423066359,73.67896196701258L708.6831315342829,74.04910073879131L709.5005284564678,74.03139392849783L711.5440207619299,74.18818441181412L711.9527192230224,74.24407785050556L713.5875130673921,74.43856390875328L714.4049099895769,74.45837936040306L714.8136084506694,74.54544025147072L715.6310053728542,74.59405454465815L716.0397038339468,74.58342468138244L716.8571007561317,74.66577723627097L717.2657992172241,74.70448380363348L719.7179899837787,75.13074709808791L720.1266884448711,75.22413391322448L720.5353869059635,75.3268507442254L722.5788792114257,75.60123409002887L722.9875776725181,75.63364361882049L726.6658638223502,75.983562541977L727.0745622834424,75.99944956589445L728.3006576667198,76.05528523358981L729.1180545889047,76.12692126870854L729.9354515110896,76.16533898109077L730.7528484332745,76.22894484775662L732.7963407387366,76.54749412005071L733.205039199829,76.54538547869436L734.0224361220139,76.6372413624353L734.4311345831063,76.71884289437497L735.2485315052912,76.69278817515033L736.0659284274761,76.81194085453126L736.4746268885684,76.84013310061027L737.2920238107534,76.92612522825073L737.7007222718458,76.99033769037533L739.3355161162156,77.08132700917531L739.744214577308,77.13895357774862L740.561611499493,77.16454612900475L740.9703099605853,77.22223046857414L741.3790084216778,77.25885728007836L741.7877068827702,77.24863181377515L743.0138022660475,77.36550253881154L743.42250072714,77.36501148534501L743.8311991882323,77.36177630956547L745.4659930326021,77.42717307710933L746.2833899547869,77.4695769882199L746.6920884158794,77.49389857756267L747.1007868769718,77.55195842860644L747.9181837991567,77.64274554892023L748.7355807213416,77.63304002158156L749.5529776435264,77.74592454788962L750.3703745657112,77.68561162799932L750.7790730268038,77.72145853105673L751.1877714878962,77.77062164870671L752.0051684100811,77.76779086989961L752.4138668711735,77.77570549636033L752.822565332266,77.80395551343537L753.2312637933583,77.83139673656552L753.6399622544508,77.84474183665617L754.0486607155433,77.85554501292006L754.8660576377281,77.92960742987344L755.2747560988206,77.9482385761039L756.5008514820978,78.04130765076218L756.9095499431903,78.0818340045007L757.7269468653751,78.08905537900864L758.1356453264676,78.0980965398926L759.3617407097449,78.14480439020991L759.7704391708373,78.17646289605267L760.1791376319297,78.1700214299916L760.5878360930222,78.16121135309191L761.8139314762994,78.23856671682091L763.4487253206693,78.38859799359778L764.2661222428542,78.4034451395861L764.6748207039466,78.44041857706674L765.083519165039,78.49047714515575L766.3096145483163,78.6191331533891L766.7183130094088,78.60552808381618L767.5357099315936,78.61477144318633L769.1705037759633,78.88912590349179L769.5792022370558,78.96896542005152L769.9879006981482,78.95469598402383L770.3965991592406,78.97716890149258L771.2139960814254,78.9934025513864L772.8487899257952,79.19259694581325L773.2574883868876,79.24886589597912L774.0748853090726,79.21605197021506L774.483583770165,79.25169667478622L774.8922822312575,79.28491499752272L775.30098069235,79.3107386327631L776.1183776145348,79.43277986194721L777.3444729978121,79.42795598377592L777.7531714589045,79.43373308338226L778.161869919997,79.43927909900435L778.5705683810893,79.45317302355761L780.2053622254591,79.50294273666628L780.6140606865516,79.52483794417435L782.6575529920137,79.72027722385712L783.4749499141986,79.76129463106219L783.8836483752909,79.85846544644096L784.2923468363834,79.9477794063551L785.9271406807532,79.98925898152868L787.1532360640305,80.03489806841884L787.9706329862154,80.0725647578522L789.1967283694927,80.09064707962011L789.6054268305851,80.11973477613805L790.0141252916776,80.11202234816358L790.42282375277,80.19674351389068L790.8315222138624,80.20838436959747L791.6489191360473,79.94867485679407L792.4663160582321,80.01877996051712L793.6924114415094,79.2138277868666L794.1011099026019,72.99206482381777L794.9185068247867,75.72885022033313L795.3272052858792,76.45852678611294L795.7359037469716,76.13841769692516L796.961999130249,73.85683886389205L797.7793960524338,73.97552937530446L798.1880945135263,75.56764025581799L798.5967929746187,76.35791859646838L799.0054914357112,76.42874583764223L801.8663806633581,77.87611148751864L802.2750791244506,78.16554417779668L803.5011745077279,78.49781406165579L805.5446668131901,79.14250949222622L807.1794606575598,79.43292428943738L807.9968575797448,79.51773211165857L809.6316514241145,79.70869413914642L810.040349885207,79.75673072237316L810.8577468073918,79.83639692594471L812.4925406517615,79.84390715543299L812.901239112854,79.97357415609747L813.3099375739463,79.99064548543424L814.1273344961313,80.05549342851549L814.5360329572236,80.0866319953937L814.9447314183161,80.1607232978451L816.5795252626858,80.28039591619063L817.3969221848707,80.32430187319886L818.2143191070556,80.37970425842371L819.0317160292404,80.39082517516596L819.440414490333,80.42132826108747L820.2578114125178,80.43513552914663L821.8926052568875,80.71344730268248L822.7100021790725,80.602931387213L823.1187006401648,80.63294341966798L824.3447960234421,80.7535403739505L825.5708914067194,80.75174947307255L827.2056852510891,80.81214904945693L828.0230821732741,80.80654526283877L829.6578760176437,80.8305779972012L831.2926698620134,80.90432267367623L831.701368323106,80.89242184848712L832.1100667841985,80.89874777255608L833.7448606285682,80.92792212556816L834.1535590896606,80.94239376008204L834.562257550753,80.94721763825333L835.3796544729379,80.96171815826528L835.7883529340303,80.96610875396613L836.1970513951228,80.98297788481665L837.0144483173076,81.02162668118314L837.4231467784001,81.02801037624812L838.6492421616773,81.04253978175808L839.0579406227698,81.03306533840367L839.8753375449546,81.04190430080138L840.6927344671396,81.06457941675632L841.1014329282319,81.07783786035287L841.5101313893244,81.11313593894766L844.3710206169715,81.22301637346044L845.1884175391563,81.2383834584133L845.5971160002488,81.23676587052353L848.0493067668034,81.36446865732182L848.4580052278958,81.38621943733978L848.8667036889883,81.41302517951323L849.2754021500806,81.45762438847419L849.6841006111731,81.48220594729924L850.5014975333579,81.54251886718953L851.7275929166353,81.58674256467611L854.5884821442824,81.7563582091185L854.9971806053748,81.75055222401409L855.4058790664673,81.75549164417754L857.4493713719295,81.79674013536686L859.0841652162991,81.83668877914477L860.3102605995764,81.87308450666472L860.7189590606689,81.89183119488735L861.9450544439461,82.0170209433569L862.3537529050386,81.98596903297278L862.7624513661311,81.97195956642742L863.1711498272234,82.00165385840404L863.5798482883159,82.0346699826543L864.8059436715932,82.01875407323882L865.2146421326856,82.03201251683538L865.6233405937782,82.04787065525483L866.0320390548704,82.05376329685328L867.6668328992403,82.05670961765253L868.0755313603328,82.06058027438877L868.4842298214252,82.06193789279627L869.7103252047025,82.07404091647157L870.5277221268873,82.08293764986536L871.3451190490722,82.08195554293229L872.1625159712571,82.08686607759768L872.5712144323495,82.08937911592642L872.9799128934419,82.09050565034966L873.7973098156268,82.09449184907805L874.2060082767192,82.09951792573554L876.2495005821814,82.10682595673757L877.0668975043662,82.10503505585962L877.4755959654588,82.10922345307421L878.2929928876437,82.11055218598369L879.519088270921,82.11424952973175L880.7451836541983,82.11956446136958L881.1538821152906,82.12022882782435L881.9712790374755,82.12915444671614L882.7886759596604,82.15526693693681L883.1973744207528,82.15373600554113L883.6060728818453,82.1396976534977L885.240866726215,82.15503585295255L885.6495651873074,82.15691341032465L886.4669621094923,82.18022400723623L887.2843590316771,82.21546431483495L889.3278513371394,82.31789229085553L890.9626451815091,82.33871873493644L891.3713436426015,82.34550682697386L891.780042103694,82.35163055255657L892.1887405647865,82.35498127032827L897.0931220978956,82.53661328195187L897.9105190200804,82.52188167795566L898.7279159422653,82.551287114952L899.5453128644502,82.5553888556725L899.9540113255426,82.55495557320205L901.18010670882,82.61474855412774L901.5888051699125,82.63829023502359L901.9975036310047,82.62335643254119L902.4062020920973,82.62633163883845L902.8149005531898,82.68052083314598L903.2235990142822,82.72647766051449L903.6322974753746,82.68606684876812L904.4496943975595,82.67904767274638L904.8583928586519,82.71616553771719L905.2670913197443,82.72644877501648L906.0844882419292,82.7031670636029L908.1279805473914,82.79167222957216L909.3540759306686,82.80325531428286L910.1714728528536,82.80894575739512L910.5801713139459,82.83040768243268L911.3975682361308,82.8342494536709L912.6236636194081,82.87526686087602L913.8497590026855,82.88482796072452L914.6671559248703,82.91131596241962L915.8932513081476,82.92835840625833L916.3019497692401,82.92674081836856L917.119346691425,82.93552200977024L917.5280451525174,82.94840494189236L918.7541405357946,83.00741801437124L919.5715374579796,83.02749343550329L919.980235919072,83.07457679729504L923.2498236078114,83.29107360504293L923.658522068904,83.33521064603542L924.4759189910887,83.35361070828162L926.519411296551,83.41998958275855L928.5629036020131,83.50248656513725L928.9716020631056,83.56213511857277L929.380300524198,83.6039324342247L930.1976974463829,83.57857096695284L930.6063959074753,83.59740431166955L931.4237928296601,83.63628419202024L932.2411897518451,83.6447187574455L933.4672851351224,83.64899381115424L933.8759835962148,83.6601724988925L935.5107774405845,83.68330978281591L937.5542697460468,83.707053662198L938.3716666682316,83.71777018196781L940.8238574347863,83.72643583137733L941.2325558958786,83.7348992823006L941.6412543569711,83.73957873298173L942.0499528180635,83.74240951178888L942.4586512791559,83.75532132940907L943.6847466624333,83.98109038202512L944.5021435846181,83.9756887938932L945.7282389678954,84.0421254393662L946.1369374289878,84.00515200188556L947.3630328122651,84.06558046376796L948.1804297344501,84.04446516470676L948.997826656635,84.06930669301408L949.4065251177273,84.06751579213613L949.8152235788198,84.06794907460659L951.4500174231895,84.09885655750054L953.0848112675593,84.31997504493353L953.4935097286517,84.2584200486279L953.9022081897441,84.23733363506472L955.5370020341139,84.33635312231752L955.9457004952063,84.33375342749468L956.7630974173911,84.31734646461263L957.1717958784836,84.31584441871496L957.9891928006684,84.3703802389989L958.397891261761,84.41980332613122L958.8065897228533,84.42748686860767L959.6239866450383,84.47425248992107L960.0326851061307,84.51217914883671L960.441383567223,84.51682971401982L960.8500820283156,84.48655771208257L962.0761774115928,84.58632822228424L962.8935743337778,84.58291973351646L963.3022727948701,84.60400614707964L965.7544635614248,84.70065702349382L966.1631620225171,84.73297989579135L966.5718604836096,84.73659058304531L968.2066543279794,84.80623351879984L969.0240512501642,84.8010052436561L969.8414481723491,84.86663309518423L971.4762420167189,84.87506766060949L972.2936389389038,84.8648999653023L974.3371312443659,84.88150912667055L975.5632266276433,84.89069471504467L976.3806235498281,84.89522973823563L977.1980204720129,84.8987537689955L977.6067189331054,84.89759834907426L978.4241158552903,84.90383761664913L979.2415127774751,84.90554186103299L979.6502112385676,84.90713056342474L980.0589096996599,84.9089503498007L980.4676081607524,84.9101924262161L980.876306621845,84.9123010675724L981.2850050829372,84.91570955634018L982.1024020051221,84.92434632025163L982.5111004662147,84.93208763372417L983.737195849492,85.01845527283905" fill="none"></path></g></g></g></g></g></g><g transform="translate(49, 378)" clip-path="url(#clip_1)"><clipPath id="clip_1"><rect width="1062" height="21"></rect></clipPath><g><g><line x1="0" y1="0" x2="0" y2="5" style="visibility: inherit;" fill="rgb(0, 0, 0)" stroke="rgb(204, 204, 204)" stroke-width="1px"></line><line x1="81.73969221848708" y1="0" x2="81.73969221848708" y2="5" style="visibility: inherit;" fill="rgb(0, 0, 0)" stroke="rgb(204, 204, 204)" stroke-width="1px"></line><line x1="163.47938443697416" y1="0" x2="163.47938443697416" y2="5" style="visibility: inherit;" fill="rgb(0, 0, 0)" stroke="rgb(204, 204, 204)" stroke-width="1px"></line><line x1="245.21907665546124" y1="0" x2="245.21907665546124" y2="5" style="visibility: inherit;" fill="rgb(0, 0, 0)" stroke="rgb(204, 204, 204)" stroke-width="1px"></line><line x1="326.9587688739483" y1="0" x2="326.9587688739483" y2="5" style="visibility: inherit;" fill="rgb(0, 0, 0)" stroke="rgb(204, 204, 204)" stroke-width="1px"></line><line x1="408.69846109243537" y1="0" x2="408.69846109243537" y2="5" style="visibility: inherit;" fill="rgb(0, 0, 0)" stroke="rgb(204, 204, 204)" stroke-width="1px"></line><line x1="490.4381533109225" y1="0" x2="490.4381533109225" y2="5" style="visibility: inherit;" fill="rgb(0, 0, 0)" stroke="rgb(204, 204, 204)" stroke-width="1px"></line><line x1="572.1778455294095" y1="0" x2="572.1778455294095" y2="5" style="visibility: inherit;" fill="rgb(0, 0, 0)" stroke="rgb(204, 204, 204)" stroke-width="1px"></line><line x1="653.9175377478966" y1="0" x2="653.9175377478966" y2="5" style="visibility: inherit;" fill="rgb(0, 0, 0)" stroke="rgb(204, 204, 204)" stroke-width="1px"></line><line x1="735.6572299663836" y1="0" x2="735.6572299663836" y2="5" style="visibility: inherit;" fill="rgb(0, 0, 0)" stroke="rgb(204, 204, 204)" stroke-width="1px"></line><line x1="817.3969221848707" y1="0" x2="817.3969221848707" y2="5" style="visibility: inherit;" fill="rgb(0, 0, 0)" stroke="rgb(204, 204, 204)" stroke-width="1px"></line><line x1="899.1366144033578" y1="0" x2="899.1366144033578" y2="5" style="visibility: inherit;" fill="rgb(0, 0, 0)" stroke="rgb(204, 204, 204)" stroke-width="1px"></line><line x1="980.876306621845" y1="0" x2="980.876306621845" y2="5" style="visibility: inherit;" fill="rgb(0, 0, 0)" stroke="rgb(204, 204, 204)" stroke-width="1px"></line><line x1="1062.615998840332" y1="0" x2="1062.615998840332" y2="5" style="visibility: inherit;" fill="rgb(0, 0, 0)" stroke="rgb(204, 204, 204)" stroke-width="1px"></line></g><g transform="translate(0, 8)"><text style="text-anchor: middle; visibility: hidden; font-family: &quot;Helvetica Neue&quot;, sans-serif; font-size: 12px; font-weight: 200;" x="0" y="0" dx="0em" dy="0.95em" fill="rgb(50, 49, 63)" stroke="none" stroke-width="1px">-200</text><text style="text-anchor: middle; visibility: hidden; font-family: &quot;Helvetica Neue&quot;, sans-serif; font-size: 12px; font-weight: 200;" x="81.73969221848708" y="0" dx="0em" dy="0.95em" fill="rgb(50, 49, 63)" stroke="none" stroke-width="1px">0</text><text style="text-anchor: middle; visibility: hidden; font-family: &quot;Helvetica Neue&quot;, sans-serif; font-size: 12px; font-weight: 200;" x="163.47938443697416" y="0" dx="0em" dy="0.95em" fill="rgb(50, 49, 63)" stroke="none" stroke-width="1px">200</text><text style="text-anchor: middle; visibility: hidden; font-family: &quot;Helvetica Neue&quot;, sans-serif; font-size: 12px; font-weight: 200;" x="245.21907665546124" y="0" dx="0em" dy="0.95em" fill="rgb(50, 49, 63)" stroke="none" stroke-width="1px">400</text><text style="text-anchor: middle; visibility: hidden; font-family: &quot;Helvetica Neue&quot;, sans-serif; font-size: 12px; font-weight: 200;" x="326.9587688739483" y="0" dx="0em" dy="0.95em" fill="rgb(50, 49, 63)" stroke="none" stroke-width="1px">600</text><text style="text-anchor: middle; visibility: hidden; font-family: &quot;Helvetica Neue&quot;, sans-serif; font-size: 12px; font-weight: 200;" x="408.69846109243537" y="0" dx="0em" dy="0.95em" fill="rgb(50, 49, 63)" stroke="none" stroke-width="1px">800</text><text style="text-anchor: middle; visibility: hidden; font-family: &quot;Helvetica Neue&quot;, sans-serif; font-size: 12px; font-weight: 200;" x="490.4381533109225" y="0" dx="0em" dy="0.95em" fill="rgb(50, 49, 63)" stroke="none" stroke-width="1px">1k</text><text style="text-anchor: middle; visibility: hidden; font-family: &quot;Helvetica Neue&quot;, sans-serif; font-size: 12px; font-weight: 200;" x="572.1778455294095" y="0" dx="0em" dy="0.95em" fill="rgb(50, 49, 63)" stroke="none" stroke-width="1px">1.2k</text><text style="text-anchor: middle; visibility: hidden; font-family: &quot;Helvetica Neue&quot;, sans-serif; font-size: 12px; font-weight: 200;" x="653.9175377478966" y="0" dx="0em" dy="0.95em" fill="rgb(50, 49, 63)" stroke="none" stroke-width="1px">1.4k</text><text style="text-anchor: middle; visibility: hidden; font-family: &quot;Helvetica Neue&quot;, sans-serif; font-size: 12px; font-weight: 200;" x="735.6572299663836" y="0" dx="0em" dy="0.95em" fill="rgb(50, 49, 63)" stroke="none" stroke-width="1px">1.6k</text><text style="text-anchor: middle; visibility: hidden; font-family: &quot;Helvetica Neue&quot;, sans-serif; font-size: 12px; font-weight: 200;" x="817.3969221848707" y="0" dx="0em" dy="0.95em" fill="rgb(50, 49, 63)" stroke="none" stroke-width="1px">1.8k</text><text style="text-anchor: middle; visibility: hidden; font-family: &quot;Helvetica Neue&quot;, sans-serif; font-size: 12px; font-weight: 200;" x="899.1366144033578" y="0" dx="0em" dy="0.95em" fill="rgb(50, 49, 63)" stroke="none" stroke-width="1px">2k</text><text style="text-anchor: middle; visibility: hidden; font-family: &quot;Helvetica Neue&quot;, sans-serif; font-size: 12px; font-weight: 200;" x="980.876306621845" y="0" dx="0em" dy="0.95em" fill="rgb(50, 49, 63)" stroke="none" stroke-width="1px">2.2k</text><text style="text-anchor: middle; visibility: hidden; font-family: &quot;Helvetica Neue&quot;, sans-serif; font-size: 12px; font-weight: 200;" x="1062.615998840332" y="0" dx="0em" dy="0.95em" fill="rgb(50, 49, 63)" stroke="none" stroke-width="1px">2.4k</text></g><line x1="0" y1="0" x2="1062.615998840332" y2="0" fill="rgb(0, 0, 0)" stroke="rgb(204, 204, 204)" stroke-width="1px"></line></g></g></g></g></svg>